<svg width="188" height="58" viewBox="0 0 188 58" fill="none" xmlns="http://www.w3.org/2000/svg">
<path d="M54.0341 46H61.4148V34.6818H67.6193C75.6477 34.6818 80.3182 29.892 80.3182 22.9205C80.3182 15.983 75.733 11.0909 67.8068 11.0909H54.0341V46ZM61.4148 28.767V17.125H66.392C70.6534 17.125 72.7159 19.4432 72.7159 22.9205C72.7159 26.3807 70.6534 28.767 66.4261 28.767H61.4148ZM94.2017 46.4261C98.429 46.4261 100.628 43.9886 101.634 41.8068H101.94V46H109.099V19.8182H101.855V24.2159H101.634C100.662 22.0852 98.5653 19.4773 94.1847 19.4773C88.4403 19.4773 83.5824 23.9432 83.5824 32.9432C83.5824 41.7045 88.2358 46.4261 94.2017 46.4261ZM96.5028 40.6477C92.9403 40.6477 90.9972 37.4773 90.9972 32.9091C90.9972 28.375 92.9062 25.2557 96.5028 25.2557C100.031 25.2557 102.009 28.2386 102.009 32.9091C102.009 37.5795 99.9972 40.6477 96.5028 40.6477ZM115.07 46H122.331V31.1875C122.348 27.983 124.666 25.7841 127.598 25.7841C128.587 25.7841 129.388 26.0568 130.07 26.3977L132.251 20.3977C131.297 19.8182 130.07 19.4432 128.672 19.4432C125.723 19.4432 123.337 21.1477 122.382 24.3864H122.109V19.8182H115.07V46ZM135.32 46H142.581V37.6818L144.541 35.4489L151.683 46H160.189L149.979 31.1534L159.695 19.8182H151.359L142.973 29.7557H142.581V11.0909H135.32V46ZM185.041 27.2841C184.393 22.4602 180.507 19.4773 173.893 19.4773C167.195 19.4773 162.78 22.5795 162.797 27.625C162.78 31.5455 165.251 34.0852 170.365 35.108L174.899 36.0114C177.183 36.4716 178.223 37.3068 178.257 38.6193C178.223 40.1705 176.536 41.2784 173.996 41.2784C171.405 41.2784 169.683 40.1705 169.24 38.0398L162.098 38.4148C162.78 43.4261 167.041 46.5114 173.979 46.5114C180.763 46.5114 185.621 43.0511 185.638 37.8864C185.621 34.1023 183.149 31.8352 178.07 30.7955L173.331 29.8409C170.893 29.3125 169.99 28.4773 170.007 27.2159C169.99 25.6477 171.763 24.625 174.013 24.625C176.536 24.625 178.036 26.0057 178.393 27.6932L185.041 27.2841Z" fill="#F8FAFC"/>
<path fill-rule="evenodd" clip-rule="evenodd" d="M19.5904 12.0131C22.1599 9.44356 25.645 8 29.2789 8C32.9128 8 36.3978 9.44356 38.9674 12.0131C41.537 14.5827 42.9805 18.0677 42.9805 21.7016C42.9805 25.3351 41.5373 28.8198 38.9682 31.3893C38.968 31.3896 38.9677 31.3899 38.9674 31.3901L25.832 44.5646C25.4567 44.9409 24.9471 45.1524 24.4157 45.1524H7.84756C6.743 45.1524 5.84756 44.257 5.84756 43.1524V26.5843C5.84756 26.0539 6.05828 25.5452 6.43335 25.1701L19.5904 12.0131ZM29.2789 12C26.7059 12 24.2382 13.0221 22.4188 14.8415L9.84756 27.4128V41.1524H23.5855L36.139 28.5617C37.9584 26.7423 38.9805 24.2747 38.9805 21.7016C38.9805 19.1286 37.9584 16.661 36.139 14.8415C34.3196 13.0221 31.8519 12 29.2789 12Z" fill="#F8FAFC"/>
<path fill-rule="evenodd" clip-rule="evenodd" d="M30.7028 20.2972C31.4839 21.0782 31.4839 22.3445 30.7028 23.1256L3.41421 50.4142C2.63317 51.1953 1.36683 51.1953 0.585786 50.4142C-0.195262 49.6332 -0.195262 48.3668 0.585786 47.5858L27.8744 20.2972C28.6555 19.5161 29.9218 19.5161 30.7028 20.2972Z" fill="#F8FAFC"/>
<path fill-rule="evenodd" clip-rule="evenodd" d="M13.6443 35.3557C13.6443 34.2511 14.5397 33.3557 15.6443 33.3557H32.2124C33.317 33.3557 34.2124 34.2511 34.2124 35.3557C34.2124 36.4603 33.317 37.3557 32.2124 37.3557H15.6443C14.5397 37.3557 13.6443 36.4603 13.6443 35.3557Z" fill="#F8FAFC"/>
</svg>
